<svg xmlns="http://www.w3.org/2000/svg" viewBox="0 0 64 80" x="0px" y="0px"><g data-name="Layer 3"><path d="M42.13656,47.4124H19.03646v-22h35v15a1.00011,1.00011,0,0,0,2,0v-15a2.002,2.002,0,0,0-2-2h-30v-3h35V40.5125a1,1,0,0,0,2,0V20.4124a2.002,2.002,0,0,0-2-2h-35a2.002,2.002,0,0,0-2,2v3h-3a2.002,2.002,0,0,0-2,2v22a2.002,2.002,0,0,0,2,2h23.1001A1.0002,1.0002,0,0,0,42.13656,47.4124Z"/><path d="M29.53646,36.4124c0,4.96241,3.36426,9,7.5,9,9.93471-.44652,9.9312-17.5557-.0001-18C32.90072,27.4124,29.53646,31.45,29.53646,36.4124Zm13,0c-.24871,9.25964-10.75214,9.25805-11-.00012C31.78517,27.15277,42.2886,27.15436,42.53646,36.4124Z"/><path d="M62.03646,45.4124a3.00328,3.00328,0,0,0-3-3h-12a3.0098,3.0098,0,0,0-2.21973,5,3.00985,3.00985,0,0,0,2.21984,4.99993l11.99989.00007a3.00984,3.00984,0,0,0,2.21973-5A2.97711,2.97711,0,0,0,62.03646,45.4124Zm-15-1h12a1.0002,1.0002,0,0,1-.00007,2H47.03646A1.0002,1.0002,0,0,1,47.03646,44.4124Zm12,6h-12a1.00019,1.00019,0,0,1,.00007-2l11.99993,0A1.0002,1.0002,0,0,1,59.03646,50.4124Z"/><path d="M50.20834,14.58526a1.00008,1.00008,0,0,0,1.4141,1.414,2.05089,2.05089,0,0,1,2.82808.00005.99989.99989,0,1,0,1.41407-1.41406A4.02,4.02,0,0,0,50.20834,14.58526Z"/><path d="M57.98666,13.46123a1.00671,1.00671,0,0,0,.707-1.707,8.00411,8.00411,0,0,0-11.31441,0,1.00008,1.00008,0,0,0,1.41411,1.414,6.03316,6.03316,0,0,1,8.48628.00011A.997.997,0,0,0,57.98666,13.46123Z"/><path d="M45.25619,10.63213a.99676.99676,0,0,0,.707-.293,10.05725,10.05725,0,0,1,14.146.00011A.99993.99993,0,0,0,61.52328,8.9251a12.00917,12.00917,0,0,0-16.97412,0A1.00676,1.00676,0,0,0,45.25619,10.63213Z"/><path d="M41.24789,50.44658,15.57211,57.33379,3.96517,14.02813l6.08722-1.63056.695,2.59394a2.00937,2.00937,0,0,0,2.44922,1.414l11.43164-3.063a2.00928,2.00928,0,0,0,1.414-2.44923l-.69468-2.59276,6.08288-1.6294,2.68018,10a1,1,0,0,0,1.93163-.51761L33.36312,6.15752A2.01116,2.01116,0,0,0,30.9178,4.73665L3.43392,12.0999A2.0046,2.0046,0,0,0,2.0306,14.55108L13.63949,57.84844a1.9984,1.9984,0,0,0,2.44581,1.40964l25.68016-6.87986A1.00005,1.00005,0,0,0,41.24789,50.44658ZM12.679,14.47393l-.69434-2.59131,11.43213-3.063.69483,2.59082Z"/></g><text x="0" y="79" fill="#000000" font-size="5px" font-weight="bold" font-family="'Helvetica Neue', Helvetica, Arial-Unicode, Arial, Sans-serif">Created by LUTFI GANI AL ACHMAD</text><text x="0" y="84" fill="#000000" font-size="5px" font-weight="bold" font-family="'Helvetica Neue', Helvetica, Arial-Unicode, Arial, Sans-serif">from the Noun Project</text></svg>