<svg xmlns="http://www.w3.org/2000/svg" xmlns:xlink="http://www.w3.org/1999/xlink" version="1.1" x="0px" y="0px" viewBox="-55 147 500 625" style="enable-background:new -55 147 500 500;" xml:space="preserve"><path d="M440.7,348.5c2.4,0,4.3-1.9,4.3-4.3v-27.1c0-2.4-1.9-4.3-4.3-4.3h-72.5v-52.9c5.7-4.7,8.8-11.8,8.3-19.2  c-0.9-11.8-11.1-21.1-23.2-21.1h-39.9c-12.1,0-22.3,9.3-23.2,21.1c-0.5,7.4,2.6,14.6,8.3,19.2v52.9H230v-52.9  c5.7-4.7,8.8-11.8,8.3-19.2c-0.9-11.8-11.1-21.1-23.2-21.1h-39.9c-12.1,0-22.3,9.3-23.2,21.1c-0.5,7.4,2.6,14.6,8.3,19.2v52.9H91.8  v-52.9c5.7-4.7,8.8-11.8,8.3-19.2c-0.9-11.8-11.1-21.1-23.2-21.1H36.8c-12.1,0-22.3,9.3-23.2,21.1c-0.5,7.4,2.6,14.6,8.3,19.2v52.9  h-72.6c-2.4,0-4.3,1.9-4.3,4.3v27.1c0,2.4,1.9,4.3,4.3,4.3h11.3v190.3h-11.3c-2.4,0-4.3,1.9-4.3,4.3v27.1c0,2.4,1.9,4.3,4.3,4.3  h491.4c2.4,0,4.3-1.9,4.3-4.3v-27.1c0-2.4-1.9-4.3-4.3-4.3h-11.3V348.5H440.7z M298.7,241.2c0.5-7.3,6.9-13.1,14.6-13.1h39.9  c7.6,0,14,5.8,14.6,13.1l0,0c0.4,5.1-2.1,10-6.4,12.9c-1.2,0.8-1.9,2.1-1.9,3.6v55.1H307V262h15.2c2.4,0,4.3-1.9,4.3-4.3  c0-2.4-1.9-4.3-4.3-4.3h-18.1C300.5,250.5,298.4,245.9,298.7,241.2z M160.5,241.2c0.5-7.3,6.9-13.1,14.6-13.1H215  c7.6,0,14,5.8,14.6,13.1l0,0c0.4,5.1-2.1,10-6.4,12.9c-1.2,0.8-1.9,2.1-1.9,3.6v31.7h-52.5V262H184c2.4,0,4.3-1.9,4.3-4.3  c0-2.4-1.9-4.3-4.3-4.3h-18.1C162.2,250.5,160.1,245.9,160.5,241.2z M22.2,241.2c0.5-7.3,6.9-13.1,14.6-13.1h39.9  c7.6,0,14,5.8,14.6,13.1l0,0c0.4,5.1-2.1,10-6.4,12.9c-1.2,0.8-1.9,2.1-1.9,3.6v55.1H30.5V262h15.2c2.4,0,4.3-1.9,4.3-4.3  c0-2.4-1.9-4.3-4.3-4.3H27.6C23.9,250.5,21.9,245.9,22.2,241.2z M-46.4,321.4h482.7v18.5H-46.4V321.4z M-9.3,538.8V348.5h31.2v145.2  c0,19.2,15.6,34.8,34.9,34.8s34.9-15.6,34.9-34.8V348.5h68.5v145.2c0,19.2,15.6,34.8,34.9,34.8s34.9-15.6,34.9-34.8V348.5h68.5  v145.2c0,19.2,15.6,34.8,34.9,34.8s34.9-15.6,34.9-34.8V348.5h31.2v190.3H-9.3z M30.5,413.3v-64.8H83v64.8H30.5z M307,360.8v-12.3  h52.5v12.3H307z M-30.7,348.5H-18v190.3h-12.7V348.5z M436.4,565.9H-46.4v-18.5h482.7L436.4,565.9L436.4,565.9z M420.7,538.8H408  V348.5h12.8L420.7,538.8L420.7,538.8z"/><text x="-55" y="662" fill="#000000" font-size="5px" font-weight="bold" font-family="'Helvetica Neue', Helvetica, Arial-Unicode, Arial, Sans-serif">Created by Serhii Smirnov</text><text x="-55" y="667" fill="#000000" font-size="5px" font-weight="bold" font-family="'Helvetica Neue', Helvetica, Arial-Unicode, Arial, Sans-serif">from the Noun Project</text></svg>