<svg xmlns="http://www.w3.org/2000/svg" xmlns:xlink="http://www.w3.org/1999/xlink" version="1.1" x="0px" y="0px" viewBox="0 0 72 90" style="enable-background:new 0 0 72 72;" xml:space="preserve"><g><path d="M47.7,51.4c-1.3-0.8-2.7-1.5-4.2-2.2v-8.3h8.8v8.1C50.6,49.6,49.1,50.4,47.7,51.4z"/><path d="M67,54.9c-5.7,0-10.6,1.2-14.1,3.5c0.6,0.8,1.1,1.6,1.6,2.4c2.9-1.9,7.5-3,12.5-3c0.5,0,1,0.4,1,1c0,0.5-0.4,1-1,1   c-4.8,0-9.2,1.1-11.8,2.9c0.3,1,0.5,2,0.5,3.1c0,0.5-0.4,1-1,1c-0.5,0-1-0.4-1-1c0-15.3-32.6-19.4-48.8-19.4c-0.5,0-1-0.4-1-1   c0-0.5,0.4-1,1-1c5.8,0,11.3,0.3,16.3,1v-3.5c-1.2-0.1-3.4-0.5-4.9-1.9c-2.2-2.2-2-5.8-2-5.8s3.7-0.2,5.8,2c0.4,0.4,0.7,0.9,1,1.4   v-6.5c-1.2-0.1-3.4-0.5-4.9-1.9c-2.2-2.2-2-5.8-2-5.8s3.7-0.2,5.8,2c0.4,0.4,0.7,0.9,1,1.4v-5c-0.8-1-1.8-2.6-1.8-4.4   c0-3.1,2.7-5.5,2.7-5.5S25,14,25,17.1c0,1.8-1,3.4-1.8,4.4v5c0.3-0.5,0.6-1,1-1.4c2.2-2.2,5.8-2,5.8-2s0.2,3.7-2,5.8   c-1.5,1.5-3.6,1.9-4.9,1.9v6.5c0.3-0.5,0.6-1,1-1.4c2.2-2.2,5.8-2,5.8-2s0.2,3.7-2,5.8c-1.5,1.5-3.6,1.9-4.9,1.9v3.8   c10.4,1.5,18.9,4.4,24.6,8.1c4.7-3.7,11.5-5.7,19.2-5.7c0.5,0,1,0.4,1,1c0,0.5-0.4,1-1,1c-7,0-13.2,1.7-17.6,4.9   c0.8,0.6,1.6,1.3,2.2,2c3.8-2.5,9.2-3.9,15.4-3.9c0.5,0,1,0.4,1,1C68,54.4,67.6,54.9,67,54.9z"/><path d="M38,65.7c0,0.5-0.4,1-1,1s-1-0.4-1-1c0-3.5-13.6-7.6-31.1-7.6c-0.5,0-1-0.4-1-1c0-0.5,0.4-1,1-1C20.9,56.2,38,59.8,38,65.7   z"/><path d="M46.9,65.7c0,0.5-0.4,1-1,1c-0.5,0-1-0.4-1-1c0-7.6-17.5-13.5-40-13.5c-0.5,0-1-0.4-1-1c0-0.5,0.4-1,1-1   C29.2,50.3,46.9,56.7,46.9,65.7z"/><path d="M54.1,19.3c-0.4,0.4-0.4,1,0,1.4c0.4,0.4,1,0.4,1.4,0c4.2-4.2,4.2-10.9,0-15.1c-0.4-0.4-1-0.4-1.4,0c-0.4,0.4-0.4,1,0,1.4   C57.5,10.4,57.5,15.9,54.1,19.3z"/><path d="M41.7,20.7c0.4-0.4,0.4-1,0-1.4c-3.4-3.4-3.4-8.9,0-12.3c0.4-0.4,0.4-1,0-1.4s-1-0.4-1.4,0c-4.2,4.2-4.2,10.9,0,15.1   C40.7,21.1,41.3,21.1,41.7,20.7z"/><path d="M51.3,18c0.4,0.4,1,0.4,1.4,0c2.6-2.6,2.6-7,0-9.6c-0.4-0.4-1-0.4-1.4,0c-0.4,0.4-0.4,1,0,1.4c1.9,1.9,1.9,5,0,6.9   C50.9,17,50.9,17.6,51.3,18z"/><path d="M43.1,18c0.4,0.4,1,0.4,1.4,0c0.4-0.4,0.4-1,0-1.4c-1.9-1.9-1.9-5,0-6.9c0.4-0.4,0.4-1,0-1.4c-0.4-0.4-1-0.4-1.4,0   C40.4,11,40.4,15.3,43.1,18z"/><path d="M46.9,15.9v7.7h-5.9c-1.6,0-2.9,1.3-2.9,2.9V36c0,1.6,1.3,2.9,2.9,2.9h13.7c1.6,0,2.9-1.3,2.9-2.9v-9.4   c0-1.6-1.3-2.9-2.9-2.9h-5.9v-7.7c1.1-0.4,1.9-1.5,1.9-2.7c0-1.6-1.3-2.9-2.9-2.9c-1.6,0-2.9,1.3-2.9,2.9   C45,14.4,45.8,15.5,46.9,15.9z M51.8,34c0-0.5,0.4-1,1-1c0.5,0,1,0.4,1,1v0.3c0,0.5-0.4,1-1,1c-0.5,0-1-0.4-1-1V34z M48.6,32.4   c0-0.5,0.4-1,1-1c0.5,0,1,0.4,1,1V34c0,0.5-0.4,1-1,1c-0.5,0-1-0.4-1-1V32.4z M44,34c0,0.5-0.4,1-1,1s-1-0.4-1-1v-5.5   c0-0.5,0.4-1,1-1s1,0.4,1,1V34z M47.2,30.4V34c0,0.5-0.4,1-1,1c-0.5,0-1-0.4-1-1v-3.6c0-0.5,0.4-1,1-1   C46.8,29.5,47.2,29.9,47.2,30.4z"/><path d="M14.4,19.6c0.5,0,1-0.4,1-1v-5.9c0-0.5-0.4-1-1-1c-0.5,0-1,0.4-1,1v5.9C13.5,19.1,13.9,19.6,14.4,19.6z"/><path d="M30.1,19.6c0.5,0,1-0.4,1-1v-5.9c0-0.5-0.4-1-1-1s-1,0.4-1,1v5.9C29.1,19.1,29.5,19.6,30.1,19.6z"/><path d="M14.4,10.1c0.5,0,1-0.4,1-1v0c0-0.5-0.4-1-1-1c-0.5,0-1,0.4-1,1C13.5,9.6,13.9,10.1,14.4,10.1z"/><path d="M30.1,10.1c0.5,0,1-0.4,1-1s-0.4-1-1-1s-1,0.4-1,1v0C29.1,9.6,29.5,10.1,30.1,10.1z"/></g><text x="0" y="87" fill="#000000" font-size="5px" font-weight="bold" font-family="'Helvetica Neue', Helvetica, Arial-Unicode, Arial, Sans-serif">Created by Azam Ishaq</text><text x="0" y="92" fill="#000000" font-size="5px" font-weight="bold" font-family="'Helvetica Neue', Helvetica, Arial-Unicode, Arial, Sans-serif">from the Noun Project</text></svg>